<svg id="Layer_1" data-name="Layer 1" xmlns="http://www.w3.org/2000/svg" viewBox="0 0 487.98 304.72"><defs><style>.cls-1{fill:#fff;}</style></defs><title>logo-footer</title><path class="cls-1" d="M190.23,336c-19.76-4.47-39.35-6.7-39.35-21.82,0-16,13.75-21,27.49-21,16,0,27.38,6.85,30.07,22.62a2.86,2.86,0,0,0,2.79,2.46h9.92a2.9,2.9,0,0,0,2.89-3.11c-2.33-24.78-20.88-35.72-45-35.72-22.34,0-44.5,11-44.5,35.91,0,22.51,19.76,28.17,39.35,32.47s39.17,7.22,39.17,24.06c0,17.69-16.32,22.34-31.1,22.34-17.71,0-34.17-8.14-35.63-26.81a2.89,2.89,0,0,0-2.83-2.74h-9.76a2.9,2.9,0,0,0-2.9,3c1.51,27.8,24,40.3,50.61,40.3,22.34,0,47.93-10.48,47.93-36.59,0-24.07-19.59-30.94-39.17-35.41" transform="translate(-56.02 -147.63)"/><path class="cls-1" d="M431.62,284.13a2.79,2.79,0,0,0-2.59-1.77H414.79a2.77,2.77,0,0,0-2.59,1.77l-45.75,117.1A2.79,2.79,0,0,0,369,405h10.82a2.78,2.78,0,0,0,2.61-1.82l12.4-33.32a2.78,2.78,0,0,1,2.61-1.82h48a2.78,2.78,0,0,1,2.62,1.84l12.07,33.27a2.79,2.79,0,0,0,2.62,1.84h12a2.78,2.78,0,0,0,2.59-3.8Zm6.69,70.22H404.66a2.78,2.78,0,0,1-2.62-3.73l18.1-49.81a1.42,1.42,0,0,1,2.67,0l18.12,49.83a2.78,2.78,0,0,1-2.62,3.71" transform="translate(-56.02 -147.63)"/><path class="cls-1" d="M542.32,283c-19.29-9-201.7-94.2-236.67-109.92a1.33,1.33,0,0,1-.6-1.77c.27-.72,1.88-.72,1.88-.72l229.33,0a5.72,5.72,0,0,0,5.72-5.71V153.35a5.73,5.73,0,0,0-5.72-5.72H63.74A5.71,5.71,0,0,0,58,153.35v11.48a5.7,5.7,0,0,0,5.71,5.71l227.89,0s1.61,0,1.88.72a1.32,1.32,0,0,1-.28,1.52L57.68,283a2.88,2.88,0,0,0-1.66,2.6V407a45.33,45.33,0,0,0,45.34,45.34H228a42.5,42.5,0,0,0,42.46-42.46l.13-4.87h0V355.5a2.87,2.87,0,0,1,2.88-2.88h37c15.8,0,19.13,10,19,22.16-.15,13.12,0,30.24,0,30.24h0v2a45.33,45.33,0,0,0,45.33,45.33H498.65A45.35,45.35,0,0,0,544,407V285.57a3,3,0,0,0-1.68-2.6M299.27,170.55h0Zm5.39,168.33H273.52a2.87,2.87,0,0,1-2.88-2.87V299a2.87,2.87,0,0,1,2.88-2.88h37.67c15.29,0,21.81,8.93,21.81,21,0,17.87-13.05,21.82-28.34,21.82M527.8,407a29.17,29.17,0,0,1-29.17,29.17H374.82A29.17,29.17,0,0,1,345.66,407v-2.5c0-3.18.11-22.29,0-33.34-.07-7.74-.07-17.28-11.51-23.87-1.75-.4-1.62-3.14,0-3.55,10.14-8.69,13.81-14.37,13.86-28.76.07-20.73-13.67-33.23-35.93-32.65H257.17a2.87,2.87,0,0,0-2.87,2.87V405h0v2a29.16,29.16,0,0,1-29.15,29.16H101.37A29.17,29.17,0,0,1,72.2,407V295.87a2.87,2.87,0,0,1,1.66-2.6L298.63,188.14a2.78,2.78,0,0,1,2.39,0c29.27,13.65,191.05,89.24,225.15,105.16a2.83,2.83,0,0,1,1.63,2.59V407Z" transform="translate(-56.02 -147.63)"/></svg>